# xmcd
#
# Track frame offsets: 
#        150
#        25052
#        53775
#        63165
#        85335
#        120330
#        133657
#        158925
#        183710
#        192775
#        239485
#
# Disc length: 3512 seconds
#
# Revision: 6
# Processed by: cddbd v1.5.2PL0 Copyright (c) Steve Scherf et al.
# Submitted via: ExactAudioCopy v1.0b1
#
DISCID=900db60b
DTITLE=The Legendary Pink Dots - 9 Lives to Wonder
DYEAR=1994
DGENRE=Psychedelic
TTITLE0=Madame Guillotine
TTITLE1=On Another Shore
TTITLE2=Softly Softly
TTITLE3=Crumbs on the Carpet
TTITLE4=Hotel Z
TTITLE5=Oasis Malade
TTITLE6=A Crack in Melancholy Time
TTITLE7=Siren
TTITLE8=The Angel Trail
TTITLE9=Nine Shades to the Circle
TTITLE10=A Terra Firma Welcome
EXTD=
EXTT0=
EXTT1=
EXTT2=
EXTT3=
EXTT4=
EXTT5=
EXTT6=
EXTT7=
EXTT8=
EXTT9=
EXTT10=
PLAYORDER=
